<?xml version="1.0" standalone="no"?>
<!DOCTYPE svg PUBLIC "-//W3C//DTD SVG 20010904//EN"
 "http://www.w3.org/TR/2001/REC-SVG-20010904/DTD/svg10.dtd">
<svg version="1.0" xmlns="http://www.w3.org/2000/svg"
 width="500.000000pt" height="500.000000pt" viewBox="0 0 500.000000 500.000000"
 preserveAspectRatio="xMidYMid meet">

<g transform="translate(0.000000,500.000000) scale(0.100000,-0.100000)"
fill="#000000" stroke="none">
<path d="M3501 4881 c-25 -5 -51 -16 -61 -28 -9 -11 -31 -72 -50 -134 -18 -63
-38 -120 -43 -127 -5 -7 -30 -21 -56 -33 l-46 -20 -126 61 c-99 48 -131 60
-153 54 -32 -8 -166 -131 -224 -207 -57 -73 -55 -92 19 -228 61 -111 62 -111
48 -151 -7 -23 -20 -49 -29 -59 -8 -10 -67 -37 -130 -59 -166 -58 -163 -52
-158 -261 4 -209 -2 -200 174 -254 l126 -39 19 -44 c11 -24 19 -52 19 -63 0
-11 -25 -69 -56 -131 -71 -142 -70 -148 34 -255 113 -115 168 -157 206 -157
21 0 71 22 144 63 l113 63 53 -22 c39 -15 57 -29 64 -48 6 -15 27 -73 48 -130
24 -67 44 -108 58 -117 53 -33 347 -25 386 10 12 11 37 71 60 146 l41 128 46
21 c25 11 52 20 59 20 8 0 64 -25 124 -55 60 -30 123 -55 140 -55 24 0 46 15
106 73 116 109 174 182 174 219 0 19 -23 72 -60 139 -33 59 -60 114 -60 122 0
8 9 35 20 60 19 43 24 46 98 73 190 68 183 64 198 100 9 22 14 71 14 141 0
144 -9 208 -31 232 -11 11 -65 34 -121 51 -153 46 -150 44 -176 104 l-23 54
49 94 c62 119 75 158 63 189 -25 66 -239 259 -287 259 -14 0 -74 -27 -135 -60
-60 -33 -115 -60 -122 -60 -7 0 -33 8 -60 17 -52 19 -42 3 -111 195 -40 112
-42 113 -205 115 -75 0 -156 -2 -180 -6z m324 -230 l50 -135 85 -33 c47 -18
92 -33 100 -33 9 0 64 27 123 60 60 33 117 60 127 60 20 0 190 -159 190 -178
0 -7 -25 -62 -56 -124 -42 -85 -55 -119 -51 -142 7 -43 56 -159 74 -173 14
-11 230 -83 250 -83 17 0 23 -39 23 -157 l0 -112 -52 -19 c-29 -11 -83 -29
-120 -41 -37 -13 -76 -30 -87 -39 -10 -9 -33 -55 -52 -101 l-33 -85 63 -121
c45 -85 62 -127 57 -141 -3 -11 -44 -58 -90 -103 l-84 -81 -127 62 c-112 55
-129 61 -153 51 -116 -48 -148 -64 -159 -80 -8 -10 -27 -63 -44 -118 -46 -153
-35 -141 -129 -149 -44 -3 -103 -4 -130 0 -48 6 -50 8 -66 53 -9 25 -30 84
-48 131 l-31 84 -80 34 c-44 19 -87 36 -95 38 -8 3 -69 -25 -135 -61 -85 -46
-125 -63 -138 -58 -26 12 -177 165 -177 180 0 7 25 63 55 123 30 60 55 118 55
127 0 18 -61 167 -74 181 -4 4 -66 27 -139 52 l-132 45 -5 80 c-3 44 -3 102 0
130 l5 50 65 22 c36 13 95 35 132 49 l67 25 26 67 c15 37 32 78 37 92 9 21 5
37 -25 96 -20 39 -49 94 -66 123 -17 28 -31 56 -31 60 0 14 160 180 180 186
12 4 62 -16 139 -55 l121 -61 72 31 c40 17 83 36 95 42 16 8 31 39 57 122 20
61 36 116 36 123 0 6 7 19 16 28 13 13 37 15 137 13 l121 -3 51 -134z"/>
<path d="M3562 4184 c-250 -55 -417 -303 -373 -554 50 -277 326 -455 596 -385
248 65 404 314 352 561 -21 97 -58 166 -129 240 -70 73 -146 116 -245 138 -84
19 -116 19 -201 0z m169 -94 c111 -21 226 -107 277 -207 96 -187 9 -429 -188
-522 -48 -22 -68 -26 -155 -26 -88 0 -107 3 -157 27 -329 154 -288 628 62 722
67 18 92 19 161 6z"/>
<path d="M2046 3286 c-17 -19 -74 -91 -126 -159 l-95 -125 -95 -4 c-52 -3 -99
-3 -105 -1 -5 2 -68 66 -139 143 -71 77 -139 143 -152 146 -13 3 -54 -4 -91
-16 -91 -29 -329 -145 -359 -175 -29 -29 -30 -51 -5 -270 l18 -160 -65 -74
-66 -74 -176 8 c-203 9 -214 9 -242 -6 -41 -22 -179 -367 -182 -455 -1 -53 4
-59 175 -190 75 -57 139 -110 142 -117 2 -7 5 -53 6 -102 l2 -90 -144 -133
c-153 -140 -163 -155 -145 -221 14 -52 106 -256 146 -324 54 -93 56 -93 240
-74 86 10 173 20 193 23 34 6 41 2 105 -56 38 -34 72 -68 76 -74 4 -7 2 -96
-4 -197 -7 -130 -7 -192 0 -211 8 -20 32 -37 94 -67 110 -52 322 -123 371
-125 46 -1 65 17 205 201 46 62 85 113 86 114 1 0 46 3 101 6 l100 5 111 -118
c60 -66 119 -129 130 -141 39 -43 63 -45 165 -9 111 39 282 123 327 161 39 32
39 41 13 270 -10 88 -15 165 -12 171 3 6 34 42 68 79 l61 68 186 -13 c231 -16
233 -16 281 84 40 84 97 239 120 324 11 45 12 67 5 87 -12 31 -12 31 -181 162
l-127 98 -7 100 -7 100 146 140 c139 133 147 142 146 178 0 46 -74 231 -138
346 -63 113 -64 113 -267 90 -232 -27 -212 -30 -295 49 l-70 67 12 192 c14
230 15 226 -100 279 -106 49 -330 124 -371 124 -25 0 -41 -8 -65 -34z m188
-100 c57 -19 139 -51 182 -70 l77 -36 -7 -113 c-4 -61 -9 -151 -13 -198 l-6
-87 93 -88 c50 -49 101 -94 112 -100 14 -7 66 -5 191 8 95 10 185 17 201 16
25 -3 34 -14 77 -98 26 -52 61 -128 75 -169 l28 -74 -148 -141 -147 -141 6
-139 c3 -76 8 -142 10 -146 2 -4 72 -60 155 -124 101 -79 150 -123 150 -136 0
-27 -51 -177 -93 -275 l-34 -80 -64 0 c-35 0 -126 4 -202 9 l-137 9 -93 -98
c-50 -53 -95 -103 -100 -110 -4 -7 2 -97 13 -200 11 -103 20 -192 20 -199 0
-15 -164 -102 -269 -142 l-74 -28 -141 147 -141 148 -138 -4 c-115 -4 -141 -8
-158 -23 -11 -10 -68 -81 -126 -157 l-107 -139 -39 6 c-44 7 -191 61 -282 102
l-58 27 7 111 c3 61 9 150 13 198 l6 88 -98 92 c-53 51 -104 97 -112 101 -8 5
-97 -1 -203 -12 -104 -12 -194 -21 -200 -21 -13 0 -117 210 -145 293 l-19 57
84 77 c47 42 113 105 148 139 l62 61 -5 138 c-5 164 9 141 -182 287 -99 76
-133 108 -133 124 0 27 62 206 101 292 l28 63 205 -7 206 -7 87 93 c49 51 92
99 96 106 4 8 -2 99 -14 204 -11 105 -19 196 -16 204 10 26 289 156 335 156
11 0 67 -54 133 -126 160 -177 138 -165 283 -158 66 3 130 7 142 9 13 3 60 56
119 132 89 116 145 183 151 183 2 0 50 -15 108 -34z"/>
<path d="M1689 2528 c-323 -27 -600 -254 -705 -578 -24 -76 -27 -100 -28 -230
-1 -174 11 -229 85 -380 46 -92 63 -116 148 -200 101 -100 164 -143 281 -190
287 -117 627 -54 852 158 91 86 141 154 190 259 189 402 21 881 -377 1078
-145 72 -279 97 -446 83z m241 -114 c202 -41 387 -187 484 -381 49 -97 67
-170 73 -294 7 -130 -16 -233 -79 -359 -61 -122 -188 -250 -308 -308 -126 -63
-230 -86 -355 -79 -55 3 -127 12 -160 21 -136 37 -274 125 -369 236 -64 74
-132 216 -152 315 -19 94 -15 248 10 339 70 252 277 451 531 510 121 27 188
27 325 0z"/>
</g>
</svg>
