<?xml version="1.0" encoding="UTF-8"?>
<svg version="1.1" xmlns="http://www.w3.org/2000/svg" width="400" height="400" viewBox="0 0 696 696">
  <!-- Kullisa Logo als Wasserzeichen - hellgrau und transparent -->
  <g opacity="0.08" fill="#9ca3af">
    <path d="M0 0 C229.68 0 459.36 0 696 0 C696 229.68 696 459.36 696 696 C466.32 696 236.64 696 0 696 C0 466.32 0 236.64 0 0 Z" fill="#FEFEFE" transform="translate(0,0)"/>
    <path d="M0 0 C2.62462218 0.95362704 5.27193018 1.76169653 7.94921875 2.5546875 C9.21958984 2.93173828 9.21958984 2.93173828 10.515625 3.31640625 C11.13308594 3.49816406 11.75054687 3.67992187 12.38671875 3.8671875 C12.38671875 4.5271875 12.38671875 5.1871875 12.38671875 5.8671875 C13.134375 5.97675781 13.88203125 6.08632812 14.65234375 6.19921875 C15.6371875 6.35777344 16.62203125 6.51632813 17.63671875 6.6796875 C18.61125 6.83050781 19.58578125 6.98132813 20.58984375 7.13671875 C23.55231754 7.91043746 25.01747991 8.99337955 27.38671875 10.8671875 C29.33114005 11.56517142 29.33114005 11.56517142 31.32421875 11.9296875 C34.49881207 12.6463401 37.44060282 13.43876765 40.38671875 14.8671875 C40.71671875 15.5271875 41.04671875 16.1871875 41.38671875 16.8671875 C42.29421875 17.1353125 43.20171875 17.4034375 44.13671875 17.6796875 C48.48582469 19.2687839 51.05339262 21.74768165 53.51293945 25.6574707 C54.63450184 28.49381079 54.62908205 30.79961983 54.6171875 33.84765625 C54.61525391 35.01232422 54.61332031 36.17699219 54.61132812 37.37695312 C54.59908203 38.59060547 54.58683594 39.80425781 54.57421875 41.0546875 C54.57357422 42.24900391 54.57292969 43.44332031 54.57226562 44.67382812 C54.54380824 50.41905827 54.3514212 56.0305198 53.62475586 61.72875977 C53.1798158 65.72591876 53.12175456 69.72382687 53.07421875 73.7421875 C53.03071289 75.00289062 53.03071289 75.00289062 52.98632812 76.2890625 C52.9628047 78.55454911 52.97549018 80.63878107 53.38671875 82.8671875 C55.26309007 84.85226571 55.26309007 84.85226571 57.38671875 85.8671875 C57.38671875 86.5271875 57.38671875 87.1871875 57.38671875 87.8671875 C58.04671875 87.8671875 58.70671875 87.8671875 59.38671875 87.8671875 C59.38671875 88.5271875 59.38671875 89.1871875 59.38671875 89.8671875 C59.9796875 89.97546875 60.57265625 90.08375 61.18359375 90.1953125 C63.65272455 90.94830984 64.80497624 91.82244989 66.63671875 93.6171875 C67.1575 94.10703125 67.67828125 94.596875 68.21484375 95.1015625 C69.76254332 97.43342985 69.47087462 99.12146204 69.38671875 101.8671875 C70.09127197 101.74093994 70.7958252 101.61469238 71.52172852 101.48461914 C79.43147254 100.11139521 87.34149821 99.13962617 95.32421875 98.3046875 C97.68771624 98.05542735 100.05100757 97.80420264 102.4140625 97.55078125 C103.44265381 97.44306396 104.47124512 97.33534668 105.53100586 97.22436523 C108.35549189 96.90941503 108.35549189 96.90941503 110.98339844 96.33056641 C113.32886362 95.87834242 115.42846542 95.75237992 117.8125 95.76953125 C119.00649414 95.77436523 119.00649414 95.77436523 120.22460938 95.77929688 C121.04123047 95.78767578 121.85785156 95.79605469 122.69921875 95.8046875 C123.53517578 95.80919922 124.37113281 95.81371094 125.23242188 95.81835938 C127.28388524 95.83008202 129.33531148 95.84801547 131.38671875 95.8671875 C131.38671875 96.5271875 131.38671875 97.1871875 131.38671875 97.8671875 C132.37671875 98.1971875 133.36671875 98.5271875 134.38671875 98.8671875 C135.08777718 100.51968237 135.74472226 102.19086333 136.38671875 103.8671875 C137.66849323 105.91153667 138.99949557 107.91184731 140.36328125 109.90234375 C141.38671875 111.8671875 141.38671875 111.8671875 141.38671875 115.8671875 C142.04671875 115.8671875 142.70671875 115.8671875 143.38671875 115.8671875 C144.0703125 117.52734375 144.75390625 119.1875 145.4375 120.84765625 C146.3772156 122.95460165 146.3772156 122.95460165 147.80859375 125.12109375 C149.73910441 128.48037345 151.0241437 131.98312953 152.32421875 135.6171875 C154.72483628 142.17982241 157.25680128 148.60735256 160.38671875 154.8671875 C160.45622416 156.40742746 160.47124232 157.95053738 160.44921875 159.4921875 C160.44019531 160.30945313 160.43117188 161.12671875 160.421875 161.96875 C160.40447266 162.90847656 160.40447266 162.90847656 160.38671875 163.8671875 C159.72671875 163.8671875 159.06671875 163.8671875 158.38671875 163.8671875 C158.28810547 164.73150391 158.28810547 164.73150391 158.1875 165.61328125 C157.06639573 168.76877961 155.21971982 169.91941656 152.57421875 171.9296875 C151.26517578 172.93708984 151.26517578 172.93708984 149.9296875 173.96484375 C148.67091797 174.90650391 148.67091797 174.90650391 147.38671875 175.8671875 C146.66097656 176.44339844 145.93523437 177.01960937 145.1875 177.61328125 C143.38671875 178.8671875 143.38671875 178.8671875 141.38671875 178.8671875 C141.38671875 179.5271875 141.38671875 180.1871875 141.38671875 180.8671875 C140.72671875 180.8671875 140.06671875 180.8671875 139.38671875 180.8671875 C139.15597656 181.43566406 138.92523438 182.00414062 138.6875 182.58984375 C137.0555067 185.44705725 135.05992808 187.15438122 132.57421875 189.3046875 C128.40873949 192.9457128 128.40873949 192.9457128 124.44921875 196.8046875 C122.38671875 198.8671875 122.38671875 198.8671875 119.38671875 200.8671875 C118.96838097 203.97358305 118.96838097 203.97358305 119.09375 207.625 C119.09799484 208.28805145 119.10223969 208.95110291 119.10661316 209.63424683 C119.12341904 211.75397191 119.16107174 213.87274938 119.19921875 215.9921875 C119.21426326 217.42837169 119.22795207 218.86457078 119.24023438 220.30078125 C119.27332785 223.82322514 119.32512195 227.34511386 119.38671875 230.8671875 C119.98484375 231.0115625 120.58296875 231.1559375 121.19921875 231.3046875 C125.98220929 232.53459935 127.95136199 234.34804155 131.38671875 237.8671875 C132.14984375 238.4240625 132.91296875 238.9809375 133.69921875 239.5546875 C134.25609375 239.9878125 134.81296875 240.4209375 135.38671875 240.8671875 C135.38671875 241.5271875 135.38671875 242.1871875 135.38671875 242.8671875 C136.11890625 242.95097656 136.85109375 243.03476562 137.60546875 243.12109375 C140.96868133 244.02330387 142.40708063 245.39053278 144.88671875 247.8046875 C147.95807055 250.78411504 150.39093143 252.37778894 154.38671875 253.8671875 C158.31652191 257.31774637 162.81188709 261.48405934 163.72338867 266.84863281 C163.81561078 269.03467577 163.7856641 271.18108076 163.69921875 273.3671875 C163.68955078 274.10066406 163.67988281 274.83414062 163.66992188 275.58984375 C163.5839669 279.76800306 163.1871107 283.75460445 162.38671875 287.8671875 C161.72671875 287.8671875 161.06671875 287.8671875 160.38671875 287.8671875 C160.28359375 288.5478125 160.18046875 289.2284375 160.07421875 289.9296875 C159.4268668 292.69564581 158.44483489 295.04562463 157.28125 297.625 C155.65113159 301.71097365 154.49326455 305.9542138 153.25390625 310.171875 C152.38671875 312.8671875 152.38671875 312.8671875 151.38671875 313.8671875 C151.26296875 314.9809375 151.13921875 316.0946875 151.01171875 317.2421875 C150.3279372 321.20812052 150.01273301 321.27304235 147.38671875 323.8671875 C146.11189432 326.40449935 144.98862456 328.98318118 143.86328125 331.58984375 C141.98053672 334.49365343 140.65924632 334.84338734 137.38671875 335.8671875 C134.6171875 336.0740509 134.6171875 336.0740509 131.57421875 336.01489258 C129.8571875 335.9904583 129.8571875 335.9904583 128.10546875 335.9655304 C126.87828125 335.93952255 125.65109375 335.91351471 124.38671875 335.88671875 C121.78256189 335.85656311 119.17839464 335.82729328 116.57421875 335.79882812 C112.47237726 335.74529708 108.37092374 335.6808341 104.26953125 335.59985352 C100.30877566 335.52294397 96.34805269 335.48612666 92.38671875 335.44921875 C91.15953125 335.41713821 89.93234375 335.38505768 88.66796875 335.352005 C81.9468063 335.19011983 81.9468063 335.19011983 76.19384766 338.27587891 C75.59749512 339.13101074 75.00114258 339.98614258 74.38671875 340.8671875 C73.75507813 341.48722656 73.1234375 342.10726563 72.47265625 342.74609375 C69.99746586 345.1817263 67.66633438 347.47772288 65.63671875 350.3046875 C65.22421875 350.8203125 64.81171875 351.3359375 64.38671875 351.8671875 C63.39671875 351.8671875 62.40671875 351.8671875 61.38671875 351.8671875 C61.71671875 357.8071875 62.04671875 363.7471875 62.38671875 369.8671875 C63.04671875 369.8671875 63.70671875 369.8671875 64.38671875 369.8671875 C69.40841406 409.33735645 69.40841406 409.33735645 63.88671875 416.9296875 C60.79200454 419.32809101 57.64699542 420.42956998 53.99609375 421.78515625 C50.72061686 423.14340041 47.90436028 424.92485761 44.98046875 426.9140625 C43.38671875 427.8671875 43.38671875 427.8671875 41.38671875 427.8671875 C41.05671875 428.8571875 40.72671875 429.8471875 40.38671875 430.8671875 C38.61181641 431.87866211 38.61181641 431.87866211 36.30078125 432.76953125 C35.03596924 433.26646484 35.03596924 433.26646484 33.74560547 433.7734375 C32.84342285 434.11375 31.94124023 434.4540625 31.01171875 434.8046875 C30.09793457 435.15660156 29.18415039 435.50851562 28.24267578 435.87109375 C26.43375754 436.56571835 24.6230797 437.25578056 22.81054688 437.94091797 C20.85036155 438.69000571 18.90499771 439.47780542 16.96484375 440.27734375 C11.31022123 442.55716988 5.45411759 444.60221422 -0.61328125 442.8671875 C-2.7839124 441.07986225 -4.33910698 439.2120719 -6.01953125 436.9609375 C-7.51243975 434.99966555 -8.91776463 433.6674355 -10.86328125 432.1796875 C-13.61328125 429.8671875 -13.61328125 429.8671875 -14.9375 427.58203125 C-16.95155858 424.31916246 -19.44952891 421.7753731 -22.17578125 419.1171875 C-22.67013672 418.62347656 -23.16449219 418.12976563 -23.67382812 417.62109375 C-26.39139249 414.90782991 -26.39139249 414.90782991 -29.61328125 412.8671875 C-29.61328125 412.2071875 -29.61328125 411.5471875 -29.61328125 410.8671875 C-30.27328125 410.8671875 -30.93328125 410.8671875 -31.61328125 410.8671875 C-32.62679789 409.20870573 -33.6244892 407.54052789 -34.61328125 405.8671875 C-36.88549372 402.98730552 -37.95691965 401.96573711 -41.63769531 401.41308594 C-42.78979492 401.4340332 -43.94189453 401.45498047 -45.12890625 401.4765625 C-46.37929688 401.48945312 -47.6296875 401.50234375 -48.91796875 401.515625 C-50.21992188 401.54914063 -51.521875 401.58265625 -52.86328125 401.6171875 C-54.18070313 401.63523437 -55.498125 401.65328125 -56.85546875 401.671875 C-60.10880433 401.71902479 -63.3606775 401.78482706 -66.61328125 401.8671875 C-66.91105469 402.49496094 -67.20882812 403.12273437 -67.515625 403.76953125 C-68.64261749 405.92325 -69.91063325 407.1645395 -71.61328125 408.8671875 C-71.94328125 409.8571875 -72.27328125 410.8471875 -72.61328125 411.8671875 C-73.60328125 411.8671875 -74.59328125 411.8671875 -75.61328125 411.8671875 C-75.90203125 412.4446875 -76.19078125 413.0221875 -76.48828125 413.6171875 C-77.52994792 415.70052083 -78.57161458 417.78385417 -79.61328125 419.8671875 C-80.27328125 419.8671875 -80.93328125 419.8671875 -81.61328125 419.8671875 C-81.84402344 420.90488281 -82.07476562 421.94257812 -82.3125 423.01171875 C-83.4714915 427.05445205 -85.51706103 429.49769668 -88.42578125 432.5546875 C-89.27785156 433.46605469 -90.12992188 434.37742187 -91.0078125 435.31640625 C-93.4352853 437.6929276 -95.95152791 439.762645 -98.61328125 441.8671875 C-99.23074219 442.599375 -99.84820312 443.3315625 -100.484375 444.0859375 C-104.29386553 447.27332774 -108.95337426 446.43862523 -113.68359375 446.2734375 C-119.08858341 445.71467117 -123.70885531 444.15116133 -128.61328125 441.8671875 C-128.61328125 441.2071875 -128.61328125 440.5471875 -128.61328125 439.8671875 C-129.91265625 439.7846875 -131.21203125 439.7021875 -132.55078125 439.6171875 C-137.79767449 439.04060583 -141.91587506 437.16388979 -146.61328125 434.8671875 C-148.34578125 434.155625 -148.34578125 434.155625 -150.11328125 433.4296875 C-153.67147744 431.84120706 -156.96129678 429.99587974 -160.33203125 428.05078125 C-162.54993771 426.90005238 -164.66726445 426.15942362 -167.05078125 425.4296875 C-170.61328125 423.8671875 -170.61328125 423.8671875 -171.8215332 421.16699219 C-172.62591886 417.81451715 -172.8568709 414.95011802 -172.84375 411.5078125 C-172.84181641 410.30898438 -172.83988281 409.11015625 -172.83789062 407.875 C-172.82564453 406.63492187 -172.81339844 405.39484375 -172.80078125 404.1171875 C-172.79981445 402.28027344 -172.79981445 402.28027344 -172.79882812 400.40625 C-172.76930533 394.27862984 -172.53808429 388.27349183 -171.84692383 382.18603516 C-171.45231468 378.26963214 -171.38992708 374.36327785 -171.36328125 370.4296875 C-171.34265625 369.64142578 -171.32203125 368.85316406 -171.30078125 368.04101562 C-171.12943028 363.80739293 -171.12943028 363.80739293 -173.00610352 360.19775391 C-174.83800344 358.68114224 -176.65466602 357.69997179 -178.80078125 356.6796875 C-179.51621094 356.33550781 -180.23164063 355.99132812 -180.96875 355.63671875 C-181.51144531 355.38277344 -182.05414063 355.12882812 -182.61328125 354.8671875 C-182.61328125 354.2071875 -182.61328125 353.5471875 -182.61328125 352.8671875 C-183.27328125 352.8671875 -183.93328125 352.8671875 -184.61328125 352.8671875 C-184.61328125 352.2071875 -184.61328125 351.5471875 -184.61328125 350.8671875 C-185.27328125 350.8671875 -185.93328125 350.8671875 -186.61328125 350.8671875 C-186.92265625 350.0421875 -187.23203125 349.2171875 -187.55078125 348.3671875 C-189.35039137 345.61528949 -189.35039137 345.61528949 -192.1484375 345.5 C-196.2272824 345.48925206 -199.72576826 345.57134984 -203.61328125 346.8671875 C-205.27854464 347.07001933 -206.94900718 347.2316538 -208.62109375 347.3671875 C-209.60851562 347.4496875 -210.5959375 347.5321875 -211.61328125 347.6171875 C-212.64453125 347.6996875 -213.67578125 347.7821875 -214.73828125 347.8671875 C-216.76180566 348.03279564 -218.78524484 348.19944873 -220.80859375 348.3671875 C-221.79077881 348.44855957 -222.77296387 348.52993164 -223.78491211 348.61376953 C-226.36277979 348.84474292 -228.92954514 349.1206687 -231.5 349.421875 C-236.56073212 350.00265209 -241.52616399 349.99396924 -246.61328125 349.8671875 C-248.25296875 349.9290625 -248.25296875 349.9290625 -249.92578125 349.9921875 C-255.71727214 347.56784248 -257.82582398 340.72061747 -260.1484375 335.25390625 C-261.18536441 332.68788426 -262.18859075 330.10986869 -263.18359375 327.52734375 C-265.64872157 321.21634712 -268.54772896 315.11718318 -271.4453125 308.99609375 C-271.76250244 308.32320312 -272.07969238 307.6503125 -272.40649414 306.95703125 C-273.0310165 305.6337259 -273.65895806 304.31202727 -274.29077148 302.9921875 C-276.67958279 297.93684292 -277.76963296 294.06426084 -277.86328125 288.4921875 C-277.90195312 287.11933594 -277.90195312 287.11933594 -277.94140625 285.71875 C-277.17612772 279.06811511 -273.18401078 274.96355334 -268.61328125 270.4921875 C-267.81277344 269.67427734 -267.81277344 269.67427734 -266.99609375 268.83984375 C-262.9935679 264.8671875 -262.9935679 264.8671875 -259.61328125 264.8671875 C-259.28328125 263.8771875 -258.95328125 262.8871875 -258.61328125 261.8671875 C-256.95115191 260.85966389 -255.28374772 259.86082704 -253.61328125 258.8671875 C-252.05754397 257.29546662 -250.55834828 255.66622641 -249.11328125 253.9921875 C-246.82598886 251.35857972 -244.66334269 248.91022162 -242.01489258 246.63354492 C-239.04338143 243.21073381 -238.96542325 241.5125987 -238.90625 237.03515625 C-238.87724609 235.74287109 -238.84824219 234.45058594 -238.81835938 233.11914062 C-238.81197105 231.76432531 -238.80611837 230.40950737 -238.80078125 229.0546875 C-238.77762377 227.6802991 -238.7522558 226.30594606 -238.72460938 224.93164062 C-238.66574783 221.57653235 -238.62945788 218.22272876 -238.61328125 214.8671875 C-239.23203125 214.5784375 -239.85078125 214.2896875 -240.48828125 213.9921875 C-242.61328125 212.8671875 -242.61328125 212.8671875 -244.61328125 210.8671875 C-245.51046875 210.7125 -245.51046875 210.7125 -246.42578125 210.5546875 C-250.31636321 209.33193317 -252.7567914 205.79414803 -255.46484375 202.86328125 C-259.01653218 199.14017929 -261.69419188 196.58382656 -266.62109375 194.82421875 C-273.81818454 191.36679278 -280.70158354 185.35441017 -283.61328125 177.8671875 C-284.55990596 171.95078309 -282.51913334 166.75035733 -280.6953125 161.17578125 C-279.45366872 157.37913042 -278.38032531 153.54699523 -277.32421875 149.6953125 C-276.61328125 147.8671875 -276.61328125 147.8671875 -274.61328125 146.8671875 C-274.16795664 145.05163334 -273.72900189 143.23430644 -273.3203125 141.41015625 C-271.92261904 136.38309302 -269.69795945 131.64125972 -267.61328125 126.8671875 C-266.95328125 126.8671875 -266.29328125 126.8671875 -265.61328125 126.8671875 C-265.57203125 125.5678125 -265.53078125 124.2684375 -265.48828125 122.9296875 C-264.872909 117.2932344 -262.38708461 113.04753642 -258.61328125 108.8671875 C-255.50128052 106.94824803 -253.14429545 106.61980728 -249.515625 106.63671875 C-248.54947266 106.63865234 -247.58332031 106.64058594 -246.58789062 106.64257812 C-245.58564453 106.65482422 -244.58339844 106.66707031 -243.55078125 106.6796875 C-242.54466797 106.68033203 -241.53855469 106.68097656 -240.50195312 106.68164062 C-233.03525191 106.72653061 -233.03525191 106.72653061 -229.61328125 107.8671875 C-227.17547748 108.01987931 -224.76044224 108.12401447 -222.3203125 108.18359375 C-221.61428391 108.20437485 -220.90825531 108.22515594 -220.18083191 108.24656677 C-217.92924574 108.31186241 -215.67754463 108.37085397 -213.42578125 108.4296875 C-211.89777465 108.47289175 -210.36977961 108.51650666 -208.84179688 108.56054688 C-205.09907563 108.66752324 -201.35623895 108.76884672 -197.61328125 108.8671875 C-197.3296875 108.25488281 -197.04609375 107.64257812 -196.75390625 107.01171875 C-195.19428982 104.07942621 -192.98695622 102.18691531 -190.61328125 99.8671875 C-189.03236976 98.0376806 -187.48280688 96.18640066 -185.9453125 94.3203125 C-184.61328125 92.8671875 -184.61328125 92.8671875 -182.61328125 91.8671875 C-183.06510962 73.37979835 -183.06510962 73.37979835 -185.1953125 55.0390625 C-186.29788963 46.6718417 -186.62431561 37.84546964 -183.61328125 29.8671875 C-181.87109375 28.08203125 -181.87109375 28.08203125 -179.73828125 26.8046875 C-178.93390625 26.32257813 -178.12953125 25.84046875 -177.30078125 25.34375 C-175.97046875 24.61285156 -175.97046875 24.61285156 -174.61328125 23.8671875 C-173.66453125 23.33867187 -172.71578125 22.81015625 -171.73828125 22.265625 C-165.83503622 19.14489911 -160.23473204 16.98071149 -153.6953125 15.60546875 C-153.00824219 15.36183594 -152.32117188 15.11820313 -151.61328125 14.8671875 C-151.28328125 13.8771875 -150.95328125 12.8871875 -150.61328125 11.8671875 C-148.71625337 11.10172011 -146.81216141 10.34871955 -144.875 9.69140625 C-141.93270765 8.6191719 -139.232305 7.20542743 -136.47265625 5.734375 C-132.57894753 3.91840161 -129.13498506 3.75383388 -124.86328125 3.8046875 C-123.8784375 3.81371094 -122.89359375 3.82273438 -121.87890625 3.83203125 C-120.75742187 3.84943359 -120.75742187 3.84943359 -119.61328125 3.8671875 C-119.28328125 4.8571875 -118.95328125 5.8471875 -118.61328125 6.8671875 C-117.95328125 6.8671875 -117.29328125 6.8671875 -116.61328125 6.8671875 C-116.61328125 7.8571875 -116.61328125 8.8471875 -116.61328125 9.8671875 C-116.030625 9.63515625 -115.44796875 9.403125 -114.84765625 9.1640625 C-112.61328125 8.8671875 -112.61328125 8.8671875 -110.69140625 10.1953125 C-110.088125 10.82953125 -109.48484375 11.46375 -108.86328125 12.1171875 C-108.2496875 12.74109375 -107.63609375 13.365 -107.00390625 14.0078125 C-105.61328125 15.8671875 -105.61328125 15.8671875 -105.61328125 18.8671875 C-104.95328125 18.8671875 -104.29328125 18.8671875 -103.61328125 18.8671875 C-103.61328125 19.5271875 -103.61328125 20.1871875 -103.61328125 20.8671875 C-102.95328125 20.8671875 -102.29328125 20.8671875 -101.61328125 20.8671875 C-101.61328125 21.5271875 -101.61328125 22.1871875 -101.61328125 22.8671875 C-100.95328125 22.8671875 -100.29328125 22.8671875 -99.61328125 22.8671875 C-99.61328125 23.5271875 -99.61328125 24.1871875 -99.61328125 24.8671875 C-98.95328125 24.8671875 -98.29328125 24.8671875 -97.61328125 24.8671875 C-96.2734375 26.265625 -96.2734375 26.265625 -94.67578125 28.2421875 C-94.03125 28.96277344 -93.38671875 29.68335938 -92.72265625 30.42578125 C-90.61328125 32.8671875 -90.61328125 32.8671875 -88.69140625 35.58984375 C-84.93580634 40.09008847 -82.15814269 42.44547418 -76.375 43.40380859 C-68.13048535 44.11443004 -59.88013371 44.09801575 -51.61328125 43.8671875 C-51.42765625 42.9390625 -51.42765625 42.9390625 -51.23828125 41.9921875 C-50.40615648 39.16296328 -48.67637641 37.93028266 -46.61328125 35.8671875 C-46.46890625 35.2278125 -46.32453125 34.5884375 -46.17578125 33.9296875 C-45.47919964 31.37555494 -44.10494018 30.25929511 -42.20703125 28.48828125 C-39.40282686 25.63596551 -37.03185338 22.42293663 -34.578125 19.26953125 C-32.70729872 16.98213928 -30.70260634 14.95206722 -28.61328125 12.8671875 C-28.18015625 12.1246875 -27.74703125 11.3821875 -27.30078125 10.6171875 C-20.26641432 -0.84622528 -12.87705059 -4.71933791 0 0 Z " transform="translate(305.61328125,235.1328125)"/>
    <path d="M0 0 C1.19711357 -0.00855011 1.19711357 -0.00855011 2.41841125 -0.01727295 C4.091509 -0.02665058 5.76462462 -0.0332278 7.43774414 -0.03710938 C9.99202146 -0.04688932 12.54551766 -0.07800939 15.09960938 -0.109375 C16.73306819 -0.11589967 18.36653269 -0.12115224 20 -0.125 C20.75842697 -0.1373468 21.51685394 -0.1496936 22.29826355 -0.16241455 C26.82760405 -0.14339189 29.70809475 0.39668875 33.30078125 3.203125 C36.43636304 7.26093673 38.38881083 11.46476351 40.30078125 16.203125 C40.79578125 17.316875 41.29078125 18.430625 41.80078125 19.578125 C43.24151062 23.05988763 44.44970438 26.54603672 45.60546875 30.12890625 C46.16028977 31.78401839 46.80928016 33.40746453 47.48828125 35.015625 C48.30078125 37.203125 48.30078125 37.203125 48.30078125 41.203125 C48.92726563 41.40808594 49.55375 41.61304688 50.19921875 41.82421875 C51.01648438 42.09363281 51.83375 42.36304688 52.67578125 42.640625 C53.48789062 42.90746094 54.3 43.17429688 55.13671875 43.44921875 C57.30078125 44.203125 57.30078125 44.203125 59.30078125 45.203125 C64.53673998 45.76172657 67.07832008 44.44630009 71.36328125 41.515625 C76.84116534 37.89908809 82.28683241 35.443995 88.5234375 33.30859375 C91.21370374 32.23778454 93.02575114 30.95239221 95.30078125 29.203125 C99.51314738 28.56211276 102.03512371 29.20417581 105.46484375 31.7265625 C108.88068887 34.47377411 112.26260932 37.26037897 115.6171875 40.08203125 C118.20102876 42.22123385 118.20102876 42.22123385 120.87109375 43.7265625 C123.49481477 45.32104247 125.4535704 47.08964514 127.61328125 49.265625 C128.65935547 50.30396484 128.65935547 50.30396484 129.7265625 51.36328125 C131.30078125 53.203125 131.30078125 53.203125 131.30078125 55.203125 C131.96078125 55.203125 132.62078125 55.203125 133.30078125 55.203125 C133.30078125 55.863125 133.30078125 56.523125 133.30078125 57.203125 C133.96078125 57.203125 134.62078125 57.203125 135.30078125 57.203125 C136.80078125 59.453125 136.80078125 59.453125 138.30078125 62.203125 C138.666875 62.79609375 139.03296875 63.3890625 139.41015625 64 C140.59050903 66.91982003 140.34737624 69.08107249 140.05078125 72.203125 C139.91929687 73.75 139.91929687 73.75 139.78515625 75.328125 C139.33078961 78.02501084 138.67380439 79.86223308 137.30078125 82.203125 C136.64078125 82.203125 135.98078125 82.203125 135.30078125 82.203125 C135.19765625 82.925 135.09453125 83.646875 134.98828125 84.390625 C134.21942164 87.53595977 133.01385843 89.44996525 131.30078125 92.203125 C126.64411268 100.18851761 126.64411268 100.18851761 126.30078125 109.203125 C127.19600557 111.35326198 128.19339688 113.37268706 129.328125 115.40625 C130.30078125 117.203125 130.30078125 117.203125 131.30078125 120.203125 C134.0508362 120.76931278 136.76621272 121.26577924 139.55078125 121.640625 C140.45828125 121.82625 141.36578125 122.011875 142.30078125 122.203125 C142.63078125 122.863125 142.96078125 123.523125 143.30078125 124.203125 C145.87643578 124.78616052 145.87643578 124.78616052 148.92578125 125.140625 C153.92366914 125.89356896 157.78302666 126.99034724 162.30078125 129.203125 C163.20828125 129.5125 164.11578125 129.821875 165.05078125 130.140625 C167.79003029 131.43415927 168.6698681 132.66920626 170.30078125 135.203125 C173.01970769 143.46384163 172.60995755 152.51816177 172.56152344 161.11987305 C172.55074996 163.39724031 172.56150299 165.67382762 172.57421875 167.95117188 C172.57289776 169.42448088 172.57033663 170.8977894 172.56640625 172.37109375 C172.56415039 173.68360107 172.56189453 174.9961084 172.55957031 176.34838867 C172.2166918 181.45566115 171.67629916 186.38515385 168.515625 190.5625 C166.03095749 192.40299445 163.78046907 193.43352537 160.86328125 194.453125 C159.93644531 194.78828125 159.00960938 195.1234375 158.0546875 195.46875 C155.33385747 196.19430468 153.1006596 196.34540557 150.30078125 196.203125 C150.30078125 196.863125 150.30078125 197.523125 150.30078125 198.203125 C149.6975 198.33589844 149.09421875 198.46867188 148.47265625 198.60546875 C147.6734375 198.78207031 146.87421875 198.95867187 146.05078125 199.140625 C145.261875 199.31464844 144.47296875 199.48867187 143.66015625 199.66796875 C141.53199422 200.150681 139.41545283 200.66475678 137.30078125 201.203125 C137.30078125 201.863125 137.30078125 202.523125 137.30078125 203.203125 C135.32078125 203.533125 133.34078125 203.863125 131.30078125 204.203125 C131.36265625 205.2240625 131.36265625 205.2240625 131.42578125 206.265625 C131.30078125 209.203125 131.30078125 209.203125 130.23828125 212.640625 C128.75428579 218.27980774 130.38913068 222.85773182 132.23828125 228.265625 C132.57730469 229.26722656 132.91632813 230.26882812 133.265625 231.30078125 C133.93733761 233.18411131 134.65396413 235.05224064 135.421875 236.8984375 C136.4051619 239.47683427 136.45714087 241.46683164 136.30078125 244.203125 C136.91953125 244.450625 137.53828125 244.698125 138.17578125 244.953125 C140.75356499 246.46946838 141.18079707 247.46538588 142.30078125 250.203125 C143.19002568 254.06498653 143.2010203 257.33796821 142.30078125 261.203125 C139.39435454 265.66036895 135.95788947 269.33545601 132.30078125 273.203125 C131.58792969 274.10804688 130.87507813 275.01296875 130.140625 275.9453125 C128.30899835 278.19304117 126.5146572 279.40000794 124.06640625 280.90234375 C121.72971441 282.6238446 119.86103384 284.66254872 117.86328125 286.765625 C112.88545964 291.81823859 109.10661521 294.24381728 101.86328125 294.578125 C97.92477667 294.45042605 94.72458713 293.51911623 91.125 291.95703125 C89.20812358 291.16483179 87.32074717 290.66241085 85.30078125 290.203125 C85.30078125 289.543125 85.30078125 288.883125 85.30078125 288.203125 C84.75164062 288.10128906 84.2025 287.99945313 83.63671875 287.89453125 C79.80321458 286.7598653 76.56685666 284.52436732 73.15234375 282.48046875 C67.80198763 280.08380238 63.60210393 281.215129 58.30078125 283.203125 C57.22828125 283.450625 56.15578125 283.698125 55.05078125 283.953125 C52.09346134 284.95358504 52.09346134 284.95358504 50.98828125 287.765625 C50.45797283 290.41716709 50.11318068 292.89864773 49.86328125 295.578125 C49.49782281 299.41864444 48.58476102 302.54570294 47.1171875 306.09765625 C46.19565474 308.47424074 45.53568351 310.86999871 44.86328125 313.328125 C43.1320741 319.19799923 40.64738089 323.92617684 35.30078125 327.203125 C32.48897897 328.14039243 30.7295595 328.33925576 27.81689453 328.36425781 C26.91230499 328.37386536 26.00771545 328.3834729 25.07571411 328.39337158 C23.61317703 328.3997464 23.61317703 328.3997464 22.12109375 328.40625 C21.11617889 328.41195007 20.11126404 328.41765015 19.07589722 328.42352295 C16.94920911 328.43297077 14.82250638 328.43950607 12.69580078 328.44335938 C9.44537792 328.45306648 6.19558699 328.48409285 2.9453125 328.515625 C0.87891 328.52215506 -1.18749701 328.52740552 -3.25390625 328.53125 C-4.71037064 328.5497702 -4.71037064 328.5497702 -6.19625854 328.56866455 C-14.77683394 328.54039435 -14.77683394 328.54039435 -18.69921875 325.203125 C-19.625 322.94140625 -19.625 322.94140625 -20.01171875 320.515625 C-20.15222656 319.70738281 -20.29273438 318.89914062 -20.4375 318.06640625 C-20.52386719 317.45152344 -20.61023438 316.83664062 -20.69921875 316.203125 C-21.35921875 316.203125 -22.01921875 316.203125 -22.69921875 316.203125 C-24.2905996 312.02575026 -24.91199933 308.67151715 -24.69921875 304.203125 C-25.35921875 304.203125 -26.01921875 304.203125 -26.69921875 304.203125 C-27.20357569 302.2667546 -27.70255749 300.32898354 -28.19921875 298.390625 C-28.47765625 297.31167969 -28.75609375 296.23273438 -29.04296875 295.12109375 C-29.69921875 292.203125 -29.69921875 292.203125 -29.69921875 289.203125 C-30.48296875 288.89375 -31.26671875 288.584375 -32.07421875 288.265625 C-34.69921875 287.203125 -34.69921875 287.203125 -36.69921875 286.203125 C-36.69921875 285.543125 -36.69921875 284.883125 -36.69921875 284.203125 C-44.47547665 282.88802256 -48.98502553 283.1517035 -55.69921875 287.203125 C-56.87484375 287.6775 -58.05046875 288.151875 -59.26171875 288.640625 C-63.47280128 290.55475342 -68.55838418 292.92145586 -70.69921875 297.203125 C-71.35921875 297.203125 -72.01921875 297.203125 -72.69921875 297.203125 C-73.02921875 298.193125 -73.35921875 299.183125 -73.69921875 300.203125 C-86.36892262 300.5721455 -86.36892262 300.5721455 -91.69921875 298.203125 C-91.69921875 297.543125 -91.69921875 296.883125 -91.69921875 296.203125 C-92.35921875 296.203125 -93.01921875 296.203125 -93.69921875 296.203125 C-94.95149359 294.72608288 -96.20088397 293.24485101 -97.3828125 291.7109375 C-98.81685966 289.93549556 -98.81685966 289.93549556 -101.69921875 288.203125 C-101.69921875 287.543125 -101.69921875 286.883125 -101.69921875 286.203125 C-103.01921875 285.543125 -104.33921875 284.883125 -105.69921875 284.203125 C-105.69921875 283.213125 -105.69921875 282.223125 -105.69921875 281.203125 C-106.35921875 281.203125 -107.01921875 281.203125 -107.69921875 281.203125 C-109.82421875 279.328125 -109.82421875 279.328125 -111.69921875 277.203125 C-111.69921875 276.543125 -111.69921875 275.883125 -111.69921875 275.203125 C-112.35921875 275.203125 -113.01921875 275.203125 -113.69921875 275.203125 C-118.11210917 270.91783623 -123.35217638 265.73304169 -123.97265625 259.421875 C-123.64448353 255.55881329 -122.46800237 253.57716816 -120.38671875 250.328125 C-117.51416905 245.65806432 -115.48007426 241.36760597 -113.69921875 236.203125 C-111.11301185 230.6169181 -111.11301185 230.6169181 -108.69921875 228.203125 C-108.34177405 225.90306837 -108.34177405 225.90306837 -108.38671875 223.328125 C-108.36996094 222.46445313 -108.35320312 221.60078125 -108.3359375 220.7109375 C-108.7660507 217.74176892 -109.83801014 216.50338795 -111.69921875 214.203125 C-112.38671875 210.953125 -112.38671875 210.953125 -112.69921875 208.203125 C-113.75109375 208.0175 -113.75109375 208.0175 -114.82421875 207.828125 C-117.69921875 207.203125 -117.69921875 207.203125 -120.57421875 206.203125 C-123.68746049 205.10500585 -123.68746049 205.10500585 -127.01171875 204.765625 C-131.47546188 204.08471503 -135.45432608 202.69840439 -139.69921875 201.203125 C-142.0169811 200.44789907 -144.33615006 199.69722911 -146.65625 198.94921875 C-152.37970759 196.85900766 -152.37970759 196.85900766 -153.72631836 194.09472656 C-156.00825014 184.96699946 -156.25769114 176.00505156 -156.25512695 166.64746094 C-156.26174289 163.94325705 -156.31653911 161.24262879 -156.37304688 158.5390625 C-156.52455387 144.14963414 -156.52455387 144.14963414 -153.39453125 139.2421875 C-149.21570713 134.99089823 -143.5937048 133.47869355 -138.01171875 131.828125 C-135.94430465 131.17767393 -133.87785006 130.52416299 -131.8125 129.8671875 C-130.90282471 129.59342285 -129.99314941 129.3196582 -129.0559082 129.03759766 C-126.47945282 128.23367921 -126.47945282 128.23367921 -123.69921875 126.203125 C-121.21875 125.7890625 -121.21875 125.7890625 -118.51171875 125.578125 C-117.16013672 125.46597656 -117.16013672 125.46597656 -115.78125 125.3515625 C-115.09417969 125.30257812 -114.40710938 125.25359375 -113.69921875 125.203125 C-113.72886719 124.42453125 -113.75851562 123.6459375 -113.7890625 122.84375 C-113.69921875 120.203125 -113.69921875 120.203125 -112.26171875 117.953125 C-110.10320775 114.15414564 -109.97114722 110.50709628 -109.69921875 106.203125 C-110.35921875 106.203125 -111.01921875 106.203125 -111.69921875 106.203125 C-111.97378906 105.45933594 -112.24835938 104.71554688 -112.53125 103.94921875 C-113.61188663 101.40845772 -114.77793114 99.49148183 -116.38671875 97.265625 C-128.10834769 79.92919109 -128.10834769 79.92919109 -127.3203125 71.29296875 C-125.24003138 64.2932807 -120.3258518 59.52123874 -114.69921875 55.203125 C-114.20421875 54.213125 -114.20421875 54.213125 -113.69921875 53.203125 C-113.03921875 53.203125 -112.37921875 53.203125 -111.69921875 53.203125 C-111.69921875 52.543125 -111.69921875 51.883125 -111.69921875 51.203125 C-110.97734375 50.81125 -110.25546875 50.419375 -109.51171875 50.015625 C-106.34247464 47.97322324 -104.9130129 45.94948164 -102.91015625 42.82421875 C-101.69921875 41.203125 -101.69921875 41.203125 -98.69921875 39.203125 C-97.70921875 39.203125 -96.71921875 39.203125 -95.69921875 39.203125 C-95.43109375 38.584375 -95.16296875 37.965625 -94.88671875 37.328125 C-93.69921875 35.203125 -93.69921875 35.203125 -90.69921875 33.203125 C-84.56194664 32.03236024 -80.39793368 33.56002949 -75.234375 36.765625 C-71.22478131 39.03916965 -66.93547214 40.50595679 -62.6171875 42.08984375 C-59.69921875 43.203125 -59.69921875 43.203125 -57.640625 44.3359375 C-51.61092455 47.02928458 -43.0550881 45.16250151 -36.69921875 44.203125 C-36.5290625 43.63207031 -36.35890625 43.06101563 -36.18359375 42.47265625 C-35.04542138 38.66462208 -33.90492772 34.85861825 -32.71484375 31.06640625 C-30.71991576 24.70565507 -28.94765916 18.369986 -27.5078125 11.859375 C-26.12059062 7.30231763 -24.72574359 4.76670727 -20.51171875 2.453125 C-13.97600426 0.0159112 -6.89262784 0.03893488 0 0 Z " transform="translate(501.69921875,14.796875)"/>
  </g>
</svg>